<svg width="180" height="180" viewBox="0 0 100 100" fill="none" xmlns="http://www.w3.org/2000/svg">
  <rect width="100" height="100" rx="20" fill="#c9ff4a" stroke="#111111" stroke-width="3"/>
  <g class="atmos-sun-peeking">
    <line x1="65" y1="15" x2="65" y2="8" stroke="#111111" stroke-width="5" stroke-linecap="round"/>
    <line x1="78" y1="20" x2="83" y2="15" stroke="#111111" stroke-width="5" stroke-linecap="round"/>
    <line x1="83" y1="33" x2="90" y2="33" stroke="#111111" stroke-width="5" stroke-linecap="round"/>
    <line x1="78" y1="46" x2="84" y2="52" stroke="#111111" stroke-width="5" stroke-linecap="round"/>
    <line x1="52" y1="20" x2="46" y2="14" stroke="#111111" stroke-width="5" stroke-linecap="round"/>
    <circle cx="65" cy="33" r="14" fill="#fde047" stroke="#111111" stroke-width="5"/>
  </g>
  <path d="M 32 72 L 74 72 C 81 72 87 66 87 59 C 87 52 81 46 74 46 C 73 37 66 31 54 31 C 43 31 36 38 35 46 C 29 46 22 51 22 58 C 22 66 27 72 32 72 Z" fill="#ffffff" stroke="#111111" stroke-width="5" stroke-linejoin="round" stroke-linecap="round"/>
</svg>